HIERARCHY
ROOT Hips
{
	OFFSET -0.001795 -0.223333 0.028219
	CHANNELS 6 Xposition Yposition Zposition Zrotation Yrotation Xrotation
	JOINT LeftUpLeg
	{
		OFFSET 0.069520 -0.091406 -0.006815
		CHANNELS 3 Zrotation Yrotation Xrotation
		JOINT LeftLeg
		{
			OFFSET 0.034277 -0.375199 -0.004496
			CHANNELS 3 Zrotation Yrotation Xrotation
			JOINT LeftFoot
			{
				OFFSET -0.013596 -0.397961 -0.043693
				CHANNELS 3 Zrotation Yrotation Xrotation
				JOINT LeftToe
				{
					OFFSET 0.026358 -0.055791 0.119288
					CHANNELS 3 Zrotation Yrotation Xrotation
					End Site
					{
						OFFSET 0.000000 0.000000 0.000000
					}
				}
			}
		}
	}
	JOINT RightUpLeg
	{
		OFFSET -0.067670 -0.090522 -0.004320
		CHANNELS 3 Zrotation Yrotation Xrotation
		JOINT RightLeg
		{
			OFFSET -0.038290 -0.382569 -0.008850
			CHANNELS 3 Zrotation Yrotation Xrotation
			JOINT RightFoot
			{
				OFFSET 0.015774 -0.398415 -0.042312
				CHANNELS 3 Zrotation Yrotation Xrotation
				JOINT RightToe
				{
					OFFSET -0.025372 -0.048144 0.123348
					CHANNELS 3 Zrotation Yrotation Xrotation
					End Site
					{
						OFFSET 0.000000 0.000000 0.000000
					}
				}
			}
		}
	}
	JOINT Spine
	{
		OFFSET -0.002533 0.108963 -0.026696
		CHANNELS 3 Zrotation Yrotation Xrotation
		JOINT Spine1
		{
			OFFSET 0.005487 0.135180 0.001092
			CHANNELS 3 Zrotation Yrotation Xrotation
			JOINT Spine2
			{
				OFFSET 0.001457 0.052922 0.025425
				CHANNELS 3 Zrotation Yrotation Xrotation
				JOINT Neck
				{
					OFFSET -0.002778 0.213870 -0.042857
					CHANNELS 3 Zrotation Yrotation Xrotation
					JOINT Head
					{
						OFFSET 0.005152 0.064970 0.051349
						CHANNELS 3 Zrotation Yrotation Xrotation
						End Site
						{
							OFFSET 0.000000 0.000000 0.000000
						}
					}
				}
				JOINT LeftShoulder
				{
					OFFSET 0.078845 0.121749 -0.034090
					CHANNELS 3 Zrotation Yrotation Xrotation
					JOINT LeftArm
					{
						OFFSET 0.090977 0.030469 -0.008868
						CHANNELS 3 Zrotation Yrotation Xrotation
						JOINT LeftForeArm
						{
							OFFSET 0.259612 -0.012772 -0.027456
							CHANNELS 3 Zrotation Yrotation Xrotation
							JOINT LeftHand
							{
								OFFSET 0.249234 0.008986 -0.001171
								CHANNELS 3 Zrotation Yrotation Xrotation
								End Site
								{
									OFFSET 0.000000 0.000000 0.000000
								}
							}
						}
					}
				}
				JOINT RightShoulder
				{
					OFFSET -0.081759 0.118833 -0.038615
					CHANNELS 3 Zrotation Yrotation Xrotation
					JOINT RightArm
					{
						OFFSET -0.096012 0.032551 -0.009143
						CHANNELS 3 Zrotation Yrotation Xrotation
						JOINT RightForeArm
						{
							OFFSET -0.253742 -0.013329 -0.021401
							CHANNELS 3 Zrotation Yrotation Xrotation
							JOINT RightHand
							{
								OFFSET -0.255298 0.007772 -0.005559
								CHANNELS 3 Zrotation Yrotation Xrotation
								End Site
								{
									OFFSET 0.000000 0.000000 0.000000
								}
							}
						}
					}
				}
			}
		}
	}
}
MOTION
Frames: 15
Frame Time: 0.050000
0.000000 0.932442 0.000000 -4.914207 -0.256568 -1.812609 11.242060 -0.074513 -2.281253 -3.688344 0.386246 9.999576 0.013270 2.168192 4.906481 0.000000 0.000000 0.000000 -18.723907 -0.092099 -6.940229 -0.481129 0.662758 13.597562 3.636687 -2.457587 22.947300 0.000000 0.000000 0.000000 -2.296400 -0.090363 4.378439 1.139603 -0.603487 1.305743 2.229649 0.173351 1.569477 4.305116 -1.777908 -13.170976 0.000000 0.000000 0.000000 -20.752820 0.805066 -2.484911 -47.201693 -5.282607 -3.372503 -5.567919 -22.951977 1.978599 0.000000 0.000000 0.000000 21.071870 -0.408520 -2.425813 54.307857 -2.645267 -6.164330 -0.213776 21.062330 0.619332 0.000000 0.000000 0.000000
-0.039586 0.928343 0.000114 -4.858015 1.695147 -1.424003 13.590245 -0.112817 -3.396755 -2.880371 0.183519 10.160885 -0.944187 0.721706 5.513673 0.000000 0.000000 0.000000 -17.977410 -0.068911 -5.108073 -0.756761 0.665195 13.201504 3.410001 -2.327447 22.656342 0.000000 0.000000 0.000000 -3.351058 -0.040579 3.836804 1.835839 -0.882671 -0.075810 3.060477 -0.630996 3.153651 1.320762 0.210134 -14.714526 0.000000 0.000000 0.000000 -22.101718 1.740674 -3.128949 -47.617685 -5.681585 -3.392507 -3.508058 -23.254751 1.606897 0.000000 0.000000 0.000000 21.043844 -1.041635 -2.710351 55.423018 -2.140697 -6.246950 -3.906691 22.583572 0.029654 0.000000 0.000000 0.000000
-0.083205 0.923591 0.000401 -3.542530 2.084117 -1.951853 14.133172 -0.095370 -3.651855 -1.124770 -0.201324 11.248122 -1.538056 0.422749 7.238416 0.000000 0.000000 0.000000 -18.276045 -0.132871 -5.229960 0.685079 0.393532 15.495276 0.667733 -6.003480 20.493025 0.000000 0.000000 0.000000 -2.721322 -0.069945 3.993510 1.914028 -0.961513 0.622506 0.874134 -0.891686 3.611025 1.922383 -0.220586 -13.705952 0.000000 0.000000 0.000000 -21.862213 1.800249 -3.222417 -45.875523 -5.734522 -3.270277 -2.445231 -22.504608 1.329585 0.000000 0.000000 0.000000 21.919356 0.638846 -1.732521 54.359206 -0.495352 -5.454491 -3.365620 21.357606 0.142763 0.000000 0.000000 0.000000
-0.130219 0.919974 0.001090 -3.384931 2.294355 -1.764419 16.791554 -0.114535 -3.045699 -0.492992 -0.296561 10.250120 -2.220209 -0.359914 8.201692 0.000000 0.000000 0.000000 -17.449802 -0.137120 -5.822622 0.769233 0.416006 17.471755 1.251478 -4.760862 19.581506 0.000000 0.000000 0.000000 -1.902039 -0.075633 3.148789 1.198875 -0.718975 2.755136 0.452436 -1.289578 2.074987 0.556645 0.569289 -12.840818 0.000000 0.000000 0.000000 -22.328765 2.532714 -3.691193 -45.343665 -5.203242 -3.299191 0.352747 -21.427285 0.740833 0.000000 0.000000 0.000000 22.663477 1.145179 -1.644412 53.369806 -0.214458 -5.047444 -4.966199 22.334146 -0.165380 0.000000 0.000000 0.000000
-0.180612 0.917318 0.001881 -2.960957 1.677477 -2.343492 19.162551 -0.085375 -2.388814 0.513075 -0.522473 11.004068 -3.311007 -1.164124 10.727010 0.000000 0.000000 0.000000 -15.206289 -0.032435 -6.051573 0.892528 0.452920 19.142060 -0.315295 -6.590691 16.230469 0.000000 0.000000 0.000000 -0.865087 -0.105280 3.121533 0.276467 -0.243411 2.898835 -0.360867 -0.559429 2.455270 0.790464 0.393902 -11.866882 0.000000 0.000000 0.000000 -23.014646 2.199445 -3.755548 -44.559991 -4.493139 -3.483716 2.225771 -20.835545 0.362155 0.000000 0.000000 0.000000 22.255964 1.582140 -1.160712 53.857928 0.390361 -4.912474 -3.792605 22.951820 0.073069 0.000000 0.000000 0.000000
-0.231573 0.916369 0.002376 -2.656968 1.680322 -2.556446 21.654498 -0.101732 -2.059265 1.494799 -0.707548 10.677652 -4.540289 -1.608563 14.205821 0.000000 0.000000 0.000000 -12.500836 0.083631 -5.823746 1.863014 0.189968 20.011665 -2.867443 -10.219871 12.004552 0.000000 0.000000 0.000000 -0.582098 -0.121367 3.347207 -0.367101 0.105287 2.397270 -0.413918 0.085775 3.622497 0.867650 0.402292 -11.983153 0.000000 0.000000 0.000000 -23.664028 2.392184 -4.116571 -44.125887 -4.436901 -3.510431 4.289388 -19.391269 -0.021250 0.000000 0.000000 0.000000 22.255622 1.810947 -0.789921 53.530388 2.292404 -4.209387 -3.919859 22.427882 0.093592 0.000000 0.000000 0.000000
-0.280634 0.919087 0.001649 -2.571641 2.602551 -2.637604 23.131120 -0.153870 -2.353340 2.893731 -0.975876 10.296011 -4.809362 -0.362775 17.663095 0.000000 0.000000 0.000000 -9.703759 0.167903 -5.496110 2.719092 -0.116514 19.994813 -4.062157 -11.855994 8.730183 0.000000 0.000000 0.000000 -0.411719 -0.146331 3.857928 0.077582 -0.107291 1.842058 -1.716039 0.023451 4.053555 1.977286 -0.166083 -12.991864 0.000000 0.000000 0.000000 -23.723991 2.373857 -4.307105 -43.832009 -3.445347 -3.806618 5.042493 -19.449331 -0.172048 0.000000 0.000000 0.000000 22.470561 1.857229 -0.552573 53.653089 3.497136 -3.779641 -4.118199 22.022699 0.093271 0.000000 0.000000 0.000000
-0.324670 0.926146 -0.000155 -2.262385 2.911359 -1.903877 24.692176 -0.084487 -3.504872 2.819529 -0.898387 9.386286 -4.377959 2.302986 22.821423 0.000000 0.000000 0.000000 -7.133380 0.301801 -6.015356 3.389944 -0.334546 19.276578 -5.100511 -13.745653 7.337684 0.000000 0.000000 0.000000 -0.586438 -0.119496 3.329750 -0.373712 0.108919 2.078298 -1.099295 -0.173930 3.936340 1.904338 -0.229826 -12.049351 0.000000 0.000000 0.000000 -24.311265 2.180204 -4.234239 -43.607094 -2.556742 -4.087746 4.969946 -19.323100 -0.149891 0.000000 0.000000 0.000000 20.603851 2.205097 -0.302545 54.637107 4.336371 -3.414943 -3.966591 21.376944 0.107606 0.000000 0.000000 0.000000
-0.362438 0.935605 -0.002162 -1.532924 3.756701 -0.928549 23.985959 0.018685 -5.450504 2.729268 -0.918471 9.882642 -2.878292 4.831588 24.079192 0.000000 0.000000 0.000000 -5.465336 0.382852 -6.125911 2.940859 -0.246979 17.202046 -4.606468 -12.773018 8.113317 0.000000 0.000000 0.000000 -0.850703 -0.089107 2.763289 -0.572694 0.232297 1.242072 -1.439054 -0.570425 4.265699 1.509794 0.170932 -13.534174 0.000000 0.000000 0.000000 -24.363546 2.727622 -4.582757 -44.032403 -2.012512 -4.330252 3.472508 -20.216816 0.102588 0.000000 0.000000 0.000000 19.553197 1.109471 -0.803740 55.642931 4.307403 -3.498191 -3.420404 21.918728 0.216379 0.000000 0.000000 0.000000
-0.393587 0.944402 -0.004305 -0.380720 4.128379 -0.580508 20.618760 0.112197 -7.466633 1.625487 -0.901246 13.026450 -1.639455 5.347942 20.224713 0.000000 0.000000 0.000000 -4.418479 0.377407 -5.265970 2.237167 -0.080516 14.992955 -4.125054 -11.781047 8.182488 0.000000 0.000000 0.000000 -1.585253 -0.071432 2.918020 -0.409152 0.211749 -0.372737 -1.735162 -0.666452 5.639692 2.117028 -0.247015 -13.235891 0.000000 0.000000 0.000000 -24.497548 2.943818 -4.727757 -44.440254 -0.752667 -4.911634 1.220599 -22.612040 0.561047 0.000000 0.000000 0.000000 18.787974 -0.037782 -1.297603 55.977370 4.358045 -3.618772 -2.842273 22.737415 0.354742 0.000000 0.000000 0.000000
-0.419447 0.950541 -0.006280 0.400533 3.995764 -0.341886 16.027085 0.028692 -8.812441 1.108571 -1.018546 16.909001 -0.742722 5.117179 15.524282 0.000000 0.000000 0.000000 -3.571724 0.355956 -4.454818 1.015924 0.192078 12.847362 -2.417361 -8.342868 8.443985 0.000000 0.000000 0.000000 -1.604625 -0.083081 3.415110 -0.587331 0.315272 -0.925513 -2.275494 -0.585795 5.574762 1.430163 0.222867 -13.401950 0.000000 0.000000 0.000000 -23.932868 3.811553 -5.169386 -46.622931 -1.055952 -5.054771 0.161561 -23.154798 0.782833 0.000000 0.000000 0.000000 17.824981 0.134061 -1.110935 56.750925 4.425058 -3.605429 -2.996885 22.123755 0.321428 0.000000 0.000000 0.000000
-0.442164 0.954424 -0.008441 1.216465 3.773203 -0.381048 11.519626 -0.172561 -9.380141 0.347737 -1.004018 20.259147 0.227450 4.628949 9.676882 0.000000 0.000000 0.000000 -2.937018 0.315306 -3.659202 -0.281560 0.444752 11.245452 -0.740754 -4.908950 8.477263 0.000000 0.000000 0.000000 -1.703848 -0.095234 4.007809 -1.353329 0.683915 -1.279153 -1.271586 -0.389045 5.410939 1.431643 0.229798 -13.646927 0.000000 0.000000 0.000000 -23.481428 3.600788 -4.921912 -48.377444 -0.600385 -5.451865 -1.640763 -24.217224 1.208066 0.000000 0.000000 0.000000 17.478521 -0.718566 -1.572851 56.428989 3.961830 -3.788979 -2.182541 22.350072 0.460122 0.000000 0.000000 0.000000
-0.463367 0.955510 -0.010686 1.608561 3.819813 -0.983508 7.219737 -0.412134 -9.437932 -0.434785 -0.863877 21.788466 -0.139999 2.183983 5.174618 0.000000 0.000000 0.000000 -1.750977 0.193640 -1.996685 -1.729163 0.657087 9.151133 0.554738 -2.099327 8.208793 0.000000 0.000000 0.000000 -1.697986 -0.131160 5.167107 -1.271722 0.650370 -1.366039 -1.245123 -0.861391 5.297450 1.382882 0.228147 -13.773106 0.000000 0.000000 0.000000 -22.833430 3.432873 -4.581774 -50.901100 -1.031511 -5.622662 -1.616139 -25.173521 1.279384 0.000000 0.000000 0.000000 17.655238 -0.280574 -1.468265 56.295581 3.231330 -4.107562 -2.325745 23.118324 0.426923 0.000000 0.000000 0.000000
-0.483933 0.954843 -0.013208 1.706751 4.038817 -1.665509 4.677231 -0.599524 -10.025896 0.245674 -1.205281 23.750676 -1.747266 -1.536673 3.889488 0.000000 0.000000 0.000000 -0.723833 0.044295 -0.391307 -2.599791 0.717151 7.195838 2.063326 1.234034 7.972544 0.000000 0.000000 0.000000 -1.645961 -0.170370 6.285147 -1.691959 0.839155 -0.857112 -0.697155 -1.430700 4.911006 1.674110 0.015197 -14.095358 0.000000 0.000000 0.000000 -22.955978 3.084373 -4.240180 -51.771690 -2.444861 -5.151272 -1.401075 -24.526135 1.229960 0.000000 0.000000 0.000000 18.144002 0.166681 -1.425383 56.299361 2.685729 -4.328569 -1.887325 22.801838 0.464350 0.000000 0.000000 0.000000
-0.503772 0.952867 -0.016473 0.848025 4.249572 -1.866607 4.386284 -0.679012 -10.993520 1.232452 -1.632782 24.960528 -1.586108 -0.808496 4.654119 0.000000 0.000000 0.000000 0.910673 -0.010185 -0.011126 -2.385530 0.629145 6.289351 3.114732 3.660094 7.716521 0.000000 0.000000 0.000000 -1.514251 -0.194575 6.736512 -0.883351 0.456249 -0.800358 -0.899702 -1.561667 5.012142 1.747655 -0.074992 -13.571865 0.000000 0.000000 0.000000 -22.901179 1.952293 -3.596020 -51.982223 -3.185666 -4.869307 -0.905470 -24.217355 1.108013 0.000000 0.000000 0.000000 19.853420 0.478732 -1.390700 55.921110 2.793657 -4.276955 -2.615253 22.855995 0.337877 0.000000 0.000000 0.000000
